<svg width="1052" height="1052" viewBox="0 0 1052 1052" fill="none" xmlns="http://www.w3.org/2000/svg">
<rect width="1052" height="1052" rx="96.8368" fill="#E7B343"/>
<path d="M765.891 911.096V781.247H772.494V911.096H765.891ZM798.904 911.096V781.247H805.506V911.096H798.904ZM812.109 911.096V781.247H825.314V911.096H812.109ZM805.066 982.183C801.398 982.183 798.17 981.376 795.382 979.762C792.595 978.002 790.394 975.654 788.78 972.72C787.166 969.785 786.359 966.411 786.359 962.596C786.359 958.928 787.166 955.627 788.78 952.692C790.394 949.758 792.595 947.41 795.382 945.649C798.17 944.035 801.398 943.228 805.066 943.228C808.001 943.228 810.715 943.815 813.209 944.989C815.557 946.163 817.538 947.85 819.151 950.051L815.41 953.792L814.97 954.233L814.53 953.792C814.53 953.352 814.383 952.912 814.09 952.472C813.943 952.179 813.576 951.738 812.989 951.151C811.815 950.124 810.568 949.391 809.248 948.951C807.781 948.364 806.167 948.07 804.406 948.07C802.205 948.07 800.224 948.657 798.464 949.831C796.556 951.005 795.089 952.692 794.062 954.893C792.888 956.947 792.301 959.368 792.301 962.156C792.301 964.943 792.888 967.511 794.062 969.859C795.236 972.059 796.776 973.747 798.684 974.921C800.738 976.241 802.939 976.901 805.286 976.901C809.101 976.901 812.402 975.361 815.19 972.28L818.491 976.241C814.823 980.203 810.348 982.183 805.066 982.183ZM838.536 911.096V781.247H845.139V911.096H838.536ZM871.549 911.096V781.247H884.754V911.096H871.549ZM891.356 911.096V781.247H897.959V911.096H891.356ZM862.525 976.461H872.209V948.731H862.965V943.889H877.931V976.461H886.734V981.303H862.525V976.461ZM874.85 935.966C873.676 935.966 872.649 935.599 871.769 934.865C871.035 933.985 870.668 932.958 870.668 931.784C870.668 930.61 871.035 929.657 871.769 928.923C872.502 928.043 873.529 927.603 874.85 927.603C875.877 927.603 876.831 928.043 877.711 928.923C878.591 929.803 879.031 930.757 879.031 931.784C879.031 932.958 878.591 933.985 877.711 934.865C876.831 935.599 875.877 935.966 874.85 935.966ZM911.181 911.096V781.247H917.783V911.096H911.181ZM944.193 911.096V781.247H950.796V911.096H944.193ZM964.001 911.096V781.247H977.206V911.096H964.001ZM946.174 982.183C943.533 982.183 941.039 981.376 938.691 979.762C936.344 978.295 934.436 976.094 932.969 973.16C931.502 970.079 930.768 966.411 930.768 962.156C930.768 957.901 931.502 954.306 932.969 951.372C934.583 948.584 936.564 946.456 938.911 944.989C941.259 943.669 943.753 943.008 946.394 943.008C949.035 943.008 951.236 943.522 952.997 944.549C954.904 945.723 956.371 947.337 957.398 949.391V926.942H963.561V927.382C963.267 927.823 963.047 928.189 962.901 928.483C962.901 928.923 962.901 929.583 962.901 930.464V975.581C962.901 976.901 962.974 977.928 963.121 978.662C963.121 979.542 963.341 980.423 963.781 981.303H958.059C957.619 980.423 957.325 979.542 957.178 978.662C957.178 977.928 957.178 976.901 957.178 975.581C956.005 977.635 954.464 979.249 952.557 980.423C950.649 981.596 948.522 982.183 946.174 982.183ZM947.055 976.901C950.429 976.901 952.923 975.581 954.537 972.94C956.151 970.299 956.958 966.777 956.958 962.376C956.958 957.974 956.078 954.453 954.317 951.812C952.557 949.171 949.989 947.85 946.614 947.85C943.386 947.85 940.892 949.024 939.131 951.372C937.371 953.866 936.49 957.167 936.49 961.275C936.49 966.117 937.371 969.932 939.131 972.72C941.039 975.507 943.68 976.901 947.055 976.901Z" fill="#39553F"/>
<path d="M285.318 110.25C280.743 101.863 277.122 94.2397 277.313 93.2868C277.503 92.3338 286.08 92.1432 297.706 92.9056C308.76 93.6679 326.104 95.5739 336.015 97.0986C345.926 98.6234 361.364 101.482 370.322 103.579C379.28 105.675 393.384 109.297 401.77 111.965C410.156 114.443 423.497 119.398 431.312 122.829C439.126 126.259 450.752 132.168 457.042 135.789C463.331 139.41 474.576 148.368 482.2 155.801C493.635 167.237 497.447 172.573 506.405 191.251C512.123 203.259 519.175 220.984 521.843 230.323C524.512 239.662 526.608 250.907 526.227 262.724L523.559 254.147C522.034 249.382 517.078 237.756 512.695 228.417C508.121 219.078 499.734 204.021 493.826 195.063C487.918 186.105 481.438 177.148 479.532 175.051C477.626 172.955 472.289 168.19 467.524 164.378C462.759 160.566 453.42 154.658 446.559 151.227C439.698 147.796 427.309 142.46 418.923 139.41C410.537 136.361 395.48 131.786 385.569 129.309C375.659 126.64 356.218 122.829 342.686 120.732C329.154 118.636 317.718 117.301 317.528 117.873C317.147 118.445 317.909 120.732 319.052 123.21C320.387 125.497 326.676 134.264 333.156 142.65C339.827 151.036 348.023 160.566 351.453 163.997C355.075 167.237 370.322 178.101 385.569 188.011C400.817 198.113 419.685 210.883 427.5 216.41C435.314 221.937 450.752 235.469 461.806 246.523C472.861 257.578 483.915 270.538 486.393 275.112C490.957 283.67 490.777 283.499 475.06 268.539L474.957 268.442C465.999 260.055 450.18 247.476 439.888 240.424C429.406 233.563 407.106 220.222 390.334 210.883C373.562 201.543 354.693 190.489 348.404 186.105C342.114 181.912 332.585 173.717 327.248 168.19C321.911 162.472 312.191 150.655 305.711 141.697C299.04 132.739 289.892 118.636 285.318 110.25Z" fill="#39553F"/>
<path d="M701.953 153.133C709.768 151.989 717.582 150.655 719.107 150.274C720.632 150.083 732.067 149.702 744.456 149.512C756.654 149.512 766.755 149.893 766.755 150.846C766.755 151.608 763.705 155.992 759.894 160.757C756.082 165.521 749.411 172.573 745.218 176.576C740.834 180.578 730.352 189.155 721.966 195.444C713.58 201.734 701.191 210.311 694.33 214.313C687.468 218.316 668.6 227.655 652.399 235.088C636.199 242.521 614.281 253.004 603.798 258.34C593.315 263.486 582.07 269.585 573.303 275.684L579.021 270.157C582.071 266.917 592.553 259.674 601.892 253.766C611.231 247.858 632.387 236.613 648.587 228.417C664.788 220.412 686.325 208.405 696.236 201.734C706.146 195.063 720.822 184.009 728.636 176.957C736.451 170.096 743.121 163.044 743.503 161.519C743.693 159.613 742.359 159.041 737.785 159.804C734.354 160.185 725.015 161.138 717.201 161.71C709.387 162.472 694.711 164.568 684.8 166.665C674.889 168.952 660.785 172.764 653.352 175.432C645.919 177.91 634.102 182.865 626.669 186.487C619.236 189.917 607.991 196.397 601.702 200.972C595.221 205.546 583.595 215.457 575.972 222.699C568.157 230.132 559.962 238.709 557.484 241.759C555.197 244.999 552.719 247.095 552.338 246.523C551.766 245.952 556.722 238.709 563.392 230.323C570.063 221.937 581.118 209.93 587.979 203.64C594.84 197.35 607.229 188.202 615.424 183.247C623.81 178.482 637.342 171.811 645.729 168.571C654.115 165.331 666.884 160.947 674.317 159.041C681.751 157.135 694.139 154.467 701.953 153.133Z" fill="#39553F"/>
<path d="M424.26 177.529C415.302 169.905 405.582 161.71 402.913 159.232C400.245 156.754 403.485 158.469 410.346 162.853C417.208 167.427 428.262 175.813 435.123 181.341C441.985 187.058 452.467 196.969 458.757 203.449C464.856 209.739 473.433 219.84 478.007 225.558C482.39 231.276 490.395 242.902 495.732 251.288C501.069 259.674 508.692 273.588 519.937 297.983L538.044 280.449C548.145 270.729 560.534 259.293 565.68 254.909C571.016 250.716 584.167 241.187 595.221 233.754C606.276 226.511 620.189 217.744 626.288 214.504C632.196 211.073 637.152 208.595 637.152 208.977C637.342 209.167 631.434 213.17 624.382 217.934C617.33 222.699 602.845 232.991 592.363 240.806C581.88 248.62 563.392 265.011 551.385 277.018C539.378 289.026 528.323 301.033 526.989 303.701C524.702 307.894 525.083 310.944 529.467 327.525C532.326 338.008 535.757 353.446 537.281 361.832C539.187 372.124 540.712 406.24 544.333 556.237L539.759 559.667C536.9 561.764 533.66 562.526 531.373 561.764C529.276 561.192 526.417 559.477 524.893 558.333C522.606 556.618 522.415 544.42 523.559 482.858C524.321 442.453 524.893 400.522 524.893 389.468C524.893 377.461 523.368 361.07 521.081 348.491C518.984 336.864 514.41 318.567 510.789 307.513C507.168 296.459 500.116 278.924 494.779 268.442C489.633 257.959 480.866 242.521 475.148 234.325C469.43 225.939 459.329 212.979 452.849 205.165C446.178 197.541 433.408 184.962 424.26 177.529Z" fill="#39553F"/>
<path d="M434.171 403.572C438.364 400.141 446.94 394.233 453.23 390.612C459.519 386.8 466 383.75 467.524 383.75C469.049 383.56 471.527 384.703 472.861 386.037C474.195 387.371 474.957 390.612 474.767 393.089C474.386 396.329 471.717 398.998 465.618 402.238C460.854 404.906 452.849 410.052 447.703 413.864C442.557 417.676 433.218 426.443 427.119 433.304C421.02 440.166 412.634 452.554 408.631 460.94C404.438 469.326 399.673 481.334 397.958 487.623C396.243 493.913 394.337 505.92 393.765 514.306C393.002 524.598 393.574 534.509 395.671 544.801C397.386 553.187 401.007 565.576 403.866 572.437C406.535 579.298 412.062 589.59 416.064 595.308C420.067 601.026 427.881 610.365 433.408 616.083C439.126 621.801 447.131 628.662 451.324 631.521C455.517 634.38 463.522 638.954 469.049 641.813C474.386 644.481 485.631 648.674 493.826 650.771C504.88 654.011 513.267 654.964 528.514 654.773C539.568 654.583 553.672 653.058 559.962 651.533C566.251 649.818 576.543 646.196 582.833 643.338C589.122 640.288 598.652 635.142 603.798 631.521C609.135 627.9 617.711 620.657 622.857 615.511C628.194 610.174 635.436 601.598 639.058 596.261C642.679 591.115 648.016 580.823 650.875 573.39C653.924 565.957 657.545 553.759 659.07 546.326C660.595 538.702 661.929 527.267 661.929 520.977C661.929 514.687 660.595 502.871 658.879 494.866C657.164 485.717 652.59 472.948 647.063 461.893C640.583 448.933 634.484 439.975 624.763 429.874C616.568 421.106 605.323 411.767 595.603 405.859C584.358 398.807 579.783 394.995 579.783 392.327C579.974 390.23 580.927 387.371 582.261 386.228C583.595 384.894 585.882 383.75 587.407 383.75C589.122 383.75 596.937 387.562 604.751 392.136C612.565 396.901 624.573 406.05 631.434 412.72C638.295 419.391 647.444 429.874 651.637 436.163C656.021 442.453 662.119 453.507 665.169 460.94C668.409 468.373 672.602 480.19 674.317 487.623C676.414 495.819 677.748 508.398 677.939 520.024C677.939 531.841 676.605 544.801 674.508 554.331C672.602 562.717 668.028 576.058 664.407 583.873C660.785 591.687 654.115 603.313 649.731 609.603C645.157 615.892 636.771 625.422 631.243 630.568C625.526 635.904 615.615 643.528 609.516 647.721C603.226 651.724 592.553 657.632 585.692 660.491C578.83 663.35 567.014 666.971 559.581 668.496C551.957 670.211 537.662 671.545 528.133 671.545C518.413 671.545 504.88 670.211 498.019 668.877C491.158 667.352 480.485 664.303 474.195 662.206C467.905 659.919 458.185 655.345 452.658 651.914C447.131 648.674 438.554 642.766 433.599 639.145C428.834 635.523 419.876 626.565 413.587 619.132C407.488 611.699 399.483 600.264 395.671 593.402C392.05 586.541 386.713 574.534 384.045 566.719C380.233 555.284 379.089 547.469 378.327 527.648C377.564 506.301 378.136 500.393 381.757 485.717C384.045 476.378 388.619 463.418 391.668 457.128C394.908 450.839 400.245 441.5 403.866 436.163C407.297 431.017 413.777 422.822 418.351 418.247C422.926 413.673 429.977 407.003 434.171 403.572Z" fill="#39553F"/>
</svg>
