<svg width="112" height="132" viewBox="0 0 112 132" fill="none" xmlns="http://www.w3.org/2000/svg">
<path d="M1.82024 4.04718C0.781036 2.14198 -0.041666 0.409973 0.00163405 0.193472C0.0449341 -0.0230279 1.99344 -0.066328 4.63474 0.106872C7.14615 0.280073 11.0865 0.713073 13.3381 1.05947C15.5897 1.40587 19.097 2.05538 21.1321 2.53168C23.1672 3.00798 26.3714 3.83068 28.2766 4.43688C30.1818 4.99978 33.2128 6.12558 34.9881 6.90498C36.7634 7.68439 39.4047 9.02669 40.8336 9.84939C42.2625 10.6721 44.8172 12.7072 46.5492 14.3959C49.1472 16.9939 50.0132 18.2063 52.0483 22.4497C53.3473 25.1776 54.9494 29.2045 55.5556 31.3262C56.1618 33.4479 56.6381 36.0026 56.5515 38.6872L55.9453 36.7387C55.5989 35.6562 54.4731 33.0149 53.4772 30.8932C52.438 28.7715 50.5328 25.3508 49.1905 23.3157C47.8482 21.2806 46.376 19.2455 45.943 18.7692C45.51 18.2929 44.2976 17.2104 43.2151 16.3444C42.1326 15.4784 40.0109 14.1361 38.4521 13.3567C36.8933 12.5773 34.0788 11.3649 32.1736 10.6721C30.2684 9.97929 26.8477 8.94009 24.5961 8.37719C22.3445 7.77098 17.9279 6.90498 14.8536 6.42868C11.7793 5.95238 9.18125 5.64928 9.13795 5.77918C9.05135 5.90908 9.22455 6.42868 9.48435 6.99158C9.78745 7.51119 11.2164 9.50299 12.6886 11.4082C14.2041 13.3134 16.066 15.4784 16.8454 16.2578C17.6681 16.9939 21.1321 19.462 24.5961 21.7136C28.0601 24.0085 32.3468 26.9096 34.1221 28.1653C35.8974 29.421 39.4047 32.4953 41.9161 35.0067C44.4275 37.5181 46.9389 40.4625 47.5018 41.5017C48.5388 43.446 48.4979 43.4071 44.9271 40.0084L44.9038 39.9862C42.8687 38.081 39.2748 35.2232 36.9366 33.6211C34.5551 32.0623 29.489 29.0313 25.6786 26.9096C21.8682 24.7879 17.5815 22.2765 16.1526 21.2806C14.7237 20.328 12.5587 18.4661 11.3463 17.2104C10.1339 15.9114 7.92555 13.2268 6.45335 11.1917C4.93784 9.15659 2.85944 5.95238 1.82024 4.04718Z" fill="#39553F"/>
<path d="M96.4742 13.7897C98.2495 13.5299 100.025 13.2268 100.371 13.1402C100.718 13.0969 103.316 13.0103 106.13 12.967C108.901 12.967 111.196 13.0536 111.196 13.2701C111.196 13.4433 110.503 14.4392 109.637 15.5217C108.771 16.6042 107.256 18.2063 106.303 19.1156C105.307 20.0249 102.926 21.9734 101.021 23.4023C99.1155 24.8312 96.301 26.7797 94.7422 27.689C93.1834 28.5983 88.8967 30.72 85.2162 32.4087C81.5357 34.0974 76.5562 36.4789 74.1747 37.6913C71.7932 38.8604 69.2385 40.246 67.2467 41.6316L68.5457 40.3759C69.2385 39.6398 71.62 37.9944 73.7417 36.6521C75.8634 35.3098 80.6697 32.7551 84.3502 30.8932C88.0307 29.0746 92.9236 26.3467 95.1752 24.8312C97.4268 23.3157 100.761 20.8043 102.536 19.2022C104.312 17.6434 105.827 16.0413 105.914 15.6949C105.957 15.2619 105.654 15.132 104.615 15.3052C103.835 15.3918 101.714 15.6083 99.9382 15.7382C98.1629 15.9114 94.8288 16.3877 92.5772 16.864C90.3256 17.3836 87.1214 18.2496 85.4327 18.8558C83.744 19.4187 81.0594 20.5445 79.3707 21.3672C77.682 22.1466 75.1273 23.6188 73.6984 24.658C72.2262 25.6972 69.5849 27.9488 67.8529 29.5942C66.0776 31.2829 64.2156 33.2314 63.6527 33.9242C63.1331 34.6603 62.5702 35.1366 62.4836 35.0067C62.3537 34.8768 63.4795 33.2314 64.995 31.3262C66.5106 29.421 69.022 26.6931 70.5808 25.2642C72.1396 23.8353 74.9541 21.7569 76.816 20.6311C78.7212 19.5486 81.7955 18.0331 83.7007 17.297C85.6059 16.5609 88.507 15.565 90.1957 15.132C91.8844 14.699 94.6989 14.0928 96.4742 13.7897Z" fill="#39553F"/>
<path d="M33.386 19.3321C31.3509 17.6001 29.1426 15.7382 28.5364 15.1753C27.9302 14.6124 28.6663 15.0021 30.2251 15.998C31.7839 17.0372 34.2953 18.9424 35.8541 20.1981C37.4129 21.4971 39.7944 23.7487 41.2233 25.2209C42.6089 26.6498 44.5574 28.9447 45.5966 30.2437C46.5925 31.5427 48.4111 34.184 49.6235 36.0892C50.8359 37.9944 52.5679 41.1553 55.1226 46.6978L59.2361 42.7141C61.531 40.5058 64.3455 37.9078 65.5146 36.9119C66.7271 35.9593 69.7148 33.7943 72.2262 32.1056C74.7376 30.4602 77.8985 28.4684 79.2841 27.7323C80.6264 26.9529 81.7522 26.39 81.7522 26.4766C81.7955 26.5199 80.4532 27.4292 78.8511 28.5117C77.249 29.5942 73.9582 31.9324 71.5767 33.7077C69.1952 35.483 64.995 39.2068 62.2671 41.9347C59.5392 44.6626 57.0278 47.3906 56.7247 47.9968C56.2051 48.9494 56.2917 49.6422 57.2876 53.4093C57.9371 55.7908 58.7165 59.2981 59.0629 61.2033C59.4959 63.5415 59.8423 71.2922 60.665 105.369L59.6258 106.149C58.9763 106.625 58.2402 106.798 57.7206 106.625C57.2443 106.495 56.5948 106.105 56.2484 105.846C55.7288 105.456 55.6855 102.685 55.9453 88.6988C56.1185 79.5192 56.2484 69.9932 56.2484 67.4818C56.2484 64.7539 55.902 61.0301 55.3824 58.1723C54.9061 55.531 53.8669 51.3742 53.0442 48.8628C52.2215 46.3513 50.6194 42.3677 49.407 39.9862C48.2379 37.6047 46.2461 34.0974 44.9471 32.2355C43.6481 30.3303 41.3532 27.3859 39.881 25.6106C38.3655 23.8786 35.4644 21.0208 33.386 19.3321Z" fill="#39553F"/>
<path d="M35.6376 70.686C36.5902 69.9066 38.5387 68.5643 39.9676 67.7416C41.3965 66.8756 42.8687 66.1828 43.2151 66.1828C43.5615 66.1395 44.1244 66.3993 44.4275 66.7024C44.7306 67.0055 44.9038 67.7416 44.8605 68.3045C44.7739 69.0406 44.1677 69.6468 42.7821 70.3829C41.6996 70.9891 39.881 72.1582 38.7119 73.0242C37.5428 73.8902 35.4211 75.882 34.0355 77.4408C32.6499 78.9996 30.7447 81.8141 29.8354 83.7193C28.8828 85.6245 27.8003 88.3524 27.4106 89.7813C27.0209 91.2102 26.5879 93.9381 26.458 95.8433C26.2848 98.1815 26.4147 100.433 26.891 102.771C27.2807 104.677 28.1034 107.491 28.7529 109.05C29.3591 110.609 30.6148 112.947 31.5241 114.246C32.4334 115.545 34.2087 117.667 35.4644 118.966C36.7634 120.265 38.582 121.823 39.5346 122.473C40.4872 123.122 42.3058 124.162 43.5615 124.811C44.7739 125.417 47.3286 126.37 49.1905 126.846C51.7019 127.582 53.6071 127.799 57.0711 127.755C59.5825 127.712 62.7867 127.366 64.2156 127.019C65.6445 126.63 67.9828 125.807 69.4117 125.157C70.8406 124.465 73.0056 123.296 74.1747 122.473C75.3871 121.65 77.3356 120.005 78.5047 118.836C79.7171 117.623 81.3625 115.675 82.1852 114.462C83.0079 113.293 84.2203 110.955 84.8698 109.266C85.5626 107.578 86.3853 104.806 86.7317 103.118C87.0781 101.386 87.3812 98.7877 87.3812 97.3588C87.3812 95.9299 87.0781 93.2453 86.6884 91.4267C86.2987 89.3483 85.2595 86.4472 84.0038 83.9358C82.5316 80.9914 81.146 78.9563 78.9377 76.6614C77.0758 74.6696 74.5211 72.5479 72.3128 71.2056C69.7581 69.6035 68.7189 68.7375 68.7189 68.1313C68.7622 67.655 68.9787 67.0055 69.2818 66.7457C69.5849 66.4426 70.1045 66.1828 70.4509 66.1828C70.8406 66.1828 72.6159 67.0488 74.3912 68.088C76.1665 69.1705 78.8944 71.2489 80.4532 72.7644C82.012 74.2799 84.0904 76.6614 85.043 78.0903C86.0389 79.5192 87.4245 82.0306 88.1173 83.7193C88.8534 85.408 89.806 88.0926 90.1957 89.7813C90.672 91.6432 90.9751 94.501 91.0184 97.1423C91.0184 99.827 90.7153 102.771 90.239 104.936C89.806 106.842 88.7668 109.873 87.9441 111.648C87.1214 113.423 85.6059 116.064 84.61 117.493C83.5708 118.922 81.6656 121.087 80.4099 122.256C79.1109 123.469 76.8593 125.201 75.4737 126.153C74.0448 127.063 71.62 128.405 70.0612 129.054C68.5024 129.704 65.8178 130.527 64.1291 130.873C62.397 131.263 59.1495 131.566 56.9845 131.566C54.7762 131.566 51.7019 131.263 50.1431 130.96C48.5843 130.613 46.1595 129.92 44.7306 129.444C43.3017 128.925 41.0934 127.885 39.8377 127.106C38.582 126.37 36.6335 125.028 35.5077 124.205C34.4252 123.382 32.3901 121.347 30.9612 119.658C29.5756 117.97 27.757 115.372 26.891 113.813C26.0683 112.254 24.8559 109.526 24.2497 107.751C23.3837 105.153 23.1239 103.378 22.9507 98.8743C22.7775 94.0247 22.9074 92.6824 23.7301 89.3483C24.2497 87.2266 25.2889 84.2822 25.9817 82.8533C26.7178 81.4244 27.9302 79.3027 28.7529 78.0903C29.5323 76.9212 31.0045 75.0593 32.0437 74.0201C33.0829 72.9809 34.685 71.4654 35.6376 70.686Z" fill="#39553F"/>
</svg>
